<svg width="1.5em" height="1.5em"  viewBox="0 0 34 34" fill="none" xmlns="http://www.w3.org/2000/svg">
<path id="icon" fill-rule="evenodd" clip-rule="evenodd" d="M5.53 0.933188C5.53 0.685691 5.6271 0.448331 5.79995 0.273324C5.9728 0.0983179 6.20723 0 6.45167 0H26.7283C26.9728 0 27.2072 0.0983179 27.3801 0.273324C27.5529 0.448331 27.65 0.685691 27.65 0.933188V1.86638H32.2583C32.5028 1.86638 32.7372 1.96469 32.9101 2.1397C33.0829 2.31471 33.18 2.55207 33.18 2.79956V8.39869C33.18 9.63617 32.6945 10.823 31.8303 11.698C30.966 12.573 29.7939 13.0646 28.5717 13.0646H27.0205C26.3617 14.947 25.2184 16.617 23.7088 17.9023C22.1991 19.1875 20.3779 20.0412 18.4333 20.3752V26.1293H23.9633C24.2078 26.1293 24.4422 26.2276 24.6151 26.4026C24.7879 26.5776 24.885 26.8149 24.885 27.0624V32.6616C24.885 32.9091 24.7879 33.1464 24.6151 33.3214C24.4422 33.4964 24.2078 33.5948 23.9633 33.5948H9.21667C8.97223 33.5948 8.7378 33.4964 8.56495 33.3214C8.3921 33.1464 8.295 32.9091 8.295 32.6616V27.0624C8.295 26.8149 8.3921 26.5776 8.56495 26.4026C8.7378 26.2276 8.97223 26.1293 9.21667 26.1293H14.7467V20.3752C12.8021 20.0412 10.9809 19.1875 9.47121 17.9023C7.96157 16.617 6.81828 14.947 6.1595 13.0646H4.60833C3.38613 13.0646 2.21398 12.573 1.34975 11.698C0.485519 10.823 0 9.63617 0 8.39869V2.79956C0 2.55207 0.0971041 2.31471 0.26995 2.1397C0.442796 1.96469 0.677225 1.86638 0.921667 1.86638H5.53V0.933188ZM27.65 9.33188V3.73275H31.3367V8.39869C31.3367 9.14118 31.0454 9.85326 30.5268 10.3783C30.0083 10.9033 29.305 11.1983 28.5717 11.1983H27.65V9.33188ZM5.53 3.73275H1.84333V8.39869C1.84333 9.14118 2.13464 9.85326 2.65318 10.3783C3.17172 10.9033 3.87501 11.1983 4.60833 11.1983H5.53V3.73275Z" 
fill="black"/>
</svg>
