<svg width="1.5em" height="1.5em"  viewBox="0 0 34 34" fill="none" xmlns="http://www.w3.org/2000/svg">
<path id="icon"  fill-rule="evenodd" clip-rule="evenodd" d="M17.2183 0.447998C8.06114 0.447998 0.636719 8.06023 0.636719 17.4519C0.636719 24.9636 5.38783 31.3363 11.978 33.5855C12.8074 33.7412 13.1097 33.2162 13.1097 32.7648C13.1097 32.3622 13.0959 31.2924 13.0876 29.8738C8.47449 30.9012 7.5015 27.5942 7.5015 27.5942C6.74726 25.6308 5.65971 25.108 5.65971 25.108C4.15399 24.0524 5.77357 24.0736 5.77357 24.0736C7.43801 24.1946 8.31371 25.8261 8.31371 25.8261C9.79321 28.4241 12.1953 27.6735 13.14 27.239C13.2912 26.1403 13.7183 25.391 14.1931 24.9658C10.5109 24.537 6.63892 23.0774 6.63892 16.5625C6.63892 14.7067 7.28551 13.1884 8.34614 11.9997C8.1757 11.5695 7.60639 9.84106 8.50831 7.49987C8.50831 7.49987 9.90086 7.04281 13.069 9.24321C14.3918 8.8661 15.8106 8.67719 17.2204 8.67082C18.6288 8.67719 20.0476 8.8661 21.3725 9.24321C24.5385 7.04281 25.9283 7.49987 25.9283 7.49987C26.833 9.84106 26.2637 11.5695 26.0933 11.9997C27.156 13.1884 27.7984 14.7067 27.7984 16.5625C27.7984 23.0944 23.9203 24.5313 20.2256 24.9523C20.8219 25.4773 21.3518 26.5145 21.3518 28.1015C21.3518 30.3741 21.3318 32.208 21.3318 32.7648C21.3318 33.2204 21.6299 33.7497 22.4718 33.5834C29.0564 31.3299 33.8034 24.9615 33.8034 17.4519C33.8034 8.06023 26.3783 0.447998 17.2183 0.447998Z" 
fill="#000000"/>
</svg>
