<svg width="1.5em" height="1.5em" viewBox="0 0 34 34" fill="white" xmlns="http://www.w3.org/2000/svg">
<path id="icon"  d="M15.2346 1.08154C15.8254 0.602186 16.5632 0.340576 17.3241 0.340576C18.0849 0.340576 18.8227 0.602186 19.4136 1.08154L32.0633 11.33C32.6385 11.7958 33.1025 12.3841 33.4215 13.052C33.7406 13.7198 33.9065 14.4505 33.9074 15.1906V30.1952C33.9074 31.0749 33.558 31.9185 32.936 32.5405C32.314 33.1625 31.4704 33.5119 30.5907 33.5119H25.6157C24.7361 33.5119 23.8925 33.1625 23.2705 32.5405C22.6485 31.9185 22.2991 31.0749 22.2991 30.1952V21.9036C22.2991 21.4638 22.1243 21.0419 21.8133 20.7309C21.5023 20.42 21.0805 20.2452 20.6407 20.2452H14.0074C13.5676 20.2452 13.1458 20.42 12.8348 20.7309C12.5238 21.0419 12.3491 21.4638 12.3491 21.9036V30.1952C12.3491 31.0749 11.9996 31.9185 11.3776 32.5405C10.7556 33.1625 9.91202 33.5119 9.03239 33.5119H4.05739C3.17775 33.5119 2.33415 33.1625 1.71215 32.5405C1.09016 31.9185 0.740723 31.0749 0.740723 30.1952V15.194C0.740576 14.4527 0.906078 13.7207 1.22513 13.0517C1.54418 12.3826 2.00872 11.7932 2.58479 11.3267L15.2346 1.08154Z" 
fill="black"/>
</svg>
