<!DOCTYPE svg PUBLIC "-//W3C//DTD SVG 1.1//EN" "http://www.w3.org/Graphics/SVG/1.1/DTD/svg11.dtd">

<!-- Uploaded to: SVG Repo, www.svgrepo.com, Transformed by: SVG Repo Mixer Tools -->
<svg width="25px" height="25px" xmlns="http://www.w3.org/2000/svg" aria-label="HTML5" role="img" viewBox="-51.2 -51.2 614.40 614.40" fill="#000000">

<g id="SVGRepo_bgCarrier" stroke-width="0">

<rect x="-51.2" y="-51.2" width="614.40" height="614.40" rx="122.88" fill="#f7f7f7" strokewidth="0"/>

</g>

<g id="SVGRepo_tracerCarrier" stroke-linecap="round" stroke-linejoin="round"/>

<g id="SVGRepo_iconCarrier">

<path fill="#e34f26" d="M71 460L30 0h451l-41 460-185 52"/>

<path fill="#ef652a" d="M256 472l149-41 35-394H256"/>

<path fill="#ebebeb" d="M256 208h-75l-5-58h80V94H114l15 171h127zm-1 147l-63-17-4-45h-56l7 89 116 32z"/>

<path fill="#ffffff" d="M255 208v57h70l-7 73-63 17v59l116-32 16-174zm0-114v56h137l5-56z"/>

</g>

</svg>