<svg width="34" height="34" viewBox="0 0 34 34" fill="white" xmlns="http://www.w3.org/2000/svg">
<path id="icon"  d="M8.71567 30.452V12.1689C8.71567 11.2568 9.04734 10.4829 9.71067 9.84719C10.374 9.2115 11.1617 8.89365 12.0738 8.89365H30.274C31.1861 8.89365 31.9672 9.21813 32.6172 9.86709C33.2673 10.5161 33.5918 11.2971 33.5907 12.2103V25.477L25.299 33.7686H12.0323C11.1203 33.7686 10.3392 33.4436 9.68911 32.7935C9.03905 32.1435 8.71457 31.363 8.71567 30.452ZM0.465462 7.6499C0.299628 6.73782 0.479281 5.91528 1.00442 5.1823C1.52956 4.44932 2.24817 4.00046 3.16025 3.83573L21.1532 0.64344C22.0653 0.477607 22.8878 0.657259 23.6208 1.1824C24.3538 1.70754 24.8026 2.42615 24.9673 3.33823L25.3819 5.57698H12.0323C10.2082 5.57698 8.64657 6.2265 7.34755 7.52552C6.04852 8.82455 5.399 10.3861 5.399 12.2103V28.0474C4.95678 27.7986 4.57647 27.467 4.25807 27.0524C3.93967 26.6378 3.73956 26.168 3.65775 25.6428L0.465462 7.6499ZM30.274 23.8186H23.6407V30.452L30.274 23.8186Z" 
fill="black"/>
</svg>
