<svg width="1.5em" height="1.5em"  viewBox="0 0 34 34" fill="none" xmlns="http://www.w3.org/2000/svg">
<path id="icon"  d="M33.058 30.7182L30.7031 33.0731C30.3924 33.3819 29.9721 33.5553 29.534 33.5553C29.0959 33.5553 28.6756 33.3819 28.3649 33.0731L8.66389 13.4052C8.12462 13.5615 7.56693 13.6451 7.00556 13.654C5.9497 13.6532 4.90928 13.4004 3.97079 12.9166C3.0323 12.4328 2.22287 11.732 1.60978 10.8724C0.996686 10.0127 0.597658 9.01917 0.445866 7.97428C0.294074 6.92939 0.393905 5.86337 0.737059 4.86483L4.94923 9.07699L5.82814 8.19808L8.18297 5.84325L9.06189 4.96433L4.84972 0.752162C5.84826 0.409009 6.91429 0.309178 7.95918 0.46097C9.00407 0.612761 9.99763 1.01179 10.8572 1.62488C11.7169 2.23797 12.4177 3.04741 12.9015 3.9859C13.3853 4.92438 13.6381 5.96481 13.6389 7.02066C13.63 7.58204 13.5464 8.13972 13.3901 8.679L33.058 28.38C33.3668 28.6907 33.5402 29.111 33.5402 29.5491C33.5402 29.9872 33.3668 30.4075 33.058 30.7182ZM0.853142 28.38C0.544276 28.6907 0.370911 29.111 0.370911 29.5491C0.370911 29.9872 0.544276 30.4075 0.853142 30.7182L3.20798 33.0731C3.51868 33.3819 3.93899 33.5553 4.3771 33.5553C4.81521 33.5553 5.23552 33.3819 5.54622 33.0731L14.6173 24.0186L9.92422 19.3255M30.2222 0.387329L23.5889 3.704V7.02066L19.9903 10.6192L23.307 13.9359L26.9056 10.3373H30.2222L33.5389 3.704L30.2222 0.387329Z" 
fill="black"/>
</svg>
