<svg width="1.5em" height="1.5em"  viewBox="0 0 33 33" fill="none" xmlns="http://www.w3.org/2000/svg">
<path id="icon" fill-rule="evenodd" clip-rule="evenodd" d="M16.5 0C7.38705 0 0 7.38705 0 16.5C0 25.6129 7.38705 33 16.5 33C25.6129 33 33 25.6129 33 16.5C33 7.38705 25.6129 0 16.5 0ZM10.725 12.375C10.725 11.6166 10.8744 10.8657 11.1646 10.165C11.4548 9.46435 11.8802 8.82772 12.4165 8.29146C12.9527 7.7552 13.5893 7.32982 14.29 7.0396C14.9907 6.74937 15.7416 6.6 16.5 6.6C17.2584 6.6 18.0093 6.74937 18.71 7.0396C19.4107 7.32982 20.0473 7.7552 20.5835 8.29146C21.1198 8.82772 21.5452 9.46435 21.8354 10.165C22.1256 10.8657 22.275 11.6166 22.275 12.375C22.275 13.9066 21.6666 15.3755 20.5835 16.4585C19.5005 17.5416 18.0316 18.15 16.5 18.15C14.9684 18.15 13.4995 17.5416 12.4165 16.4585C11.3334 15.3755 10.725 13.9066 10.725 12.375ZM26.8257 24.7236C25.5906 26.2773 24.0204 27.5318 22.2324 28.3935C20.4444 29.2552 18.4848 29.7019 16.5 29.7C14.5152 29.7019 12.5556 29.2552 10.7676 28.3935C8.97963 27.5318 7.40943 26.2773 6.1743 24.7236C8.84895 22.8046 12.4987 21.45 16.5 21.45C20.5012 21.45 24.151 22.8046 26.8257 24.7236Z" fill="black"/>
</svg>
