<svg width="30" height="30" viewBox="0 0 34 34" fill="none" xmlns="http://www.w3.org/2000/svg">
<path id="icon"  d="M4.14583 0C1.84904 0 0 1.84904 0 4.14583V29.0208C0 31.3176 1.84904 33.1667 4.14583 33.1667H29.0208C31.3176 33.1667 33.1667 31.3176 33.1667 29.0208V4.14583C33.1667 1.84904 31.3176 0 29.0208 0H4.14583ZM13.6578 8.63715C14.5284 8.63715 15.0466 9.05173 15.2124 9.8809L17.2342 21.3552C17.8768 20.5053 18.4034 19.7894 18.8179 19.209C19.5048 18.219 20.0983 17.1675 20.591 16.0679C21.1507 14.8863 21.4312 13.8291 21.4312 12.8963C21.4312 12.3366 21.275 11.8916 20.9641 11.56C20.6739 11.2076 20.1239 10.7626 19.3154 10.2236C20.1446 9.16644 21.1811 8.63715 22.4248 8.63715C23.0881 8.63715 23.6382 8.83477 24.0735 9.22862C24.5295 9.62248 24.7561 10.2015 24.7561 10.9699C24.7561 12.2551 24.2172 13.8623 23.1393 15.7901C22.0821 17.6972 20.0423 20.5675 17.0159 24.4024L13.9383 24.618L11.5738 11.3126H8.46441V10.0053C9.29358 9.7358 10.2678 9.44421 11.3872 9.13465C12.5066 8.80299 13.2639 8.63715 13.6578 8.63715Z" 
fill="black"/>
</svg>
